<?xml version="1.0" encoding="UTF-8"?>
<svg id="Layer_2" data-name="Layer 2" xmlns="http://www.w3.org/2000/svg" viewBox="0 0 173.14 169.62">
  <defs>
    <style>
      .cls-1 {
        fill: #fff;
        stroke-width: 0px;
      }
    </style>
  </defs>
  <g id="Layer_1-2" data-name="Layer 1">
    <g>
      <polygon class="cls-1" points="83.82 7.84 83.82 15.71 69.74 15.71 69.74 20.83 83.82 20.83 83.82 36.52 89.32 36.52 89.32 20.83 103.76 20.83 103.76 15.71 89.32 15.71 89.32 0 83.82 0 83.82 7.84"/>
      <polygon class="cls-1" points="37.8 27.81 37.8 39.24 16.48 39.24 16.48 46.41 37.8 46.41 37.8 69.61 45.7 69.61 45.7 46.41 67.34 46.41 67.34 39.24 45.7 39.24 45.7 16.39 37.8 16.39 37.8 27.81"/>
      <polygon class="cls-1" points="127.12 27.81 127.12 39.24 105.8 39.24 105.8 46.76 127.12 46.76 127.12 69.61 135.34 69.61 135.34 46.76 156.66 46.76 156.66 39.24 135.34 39.24 135.34 16.39 127.12 16.39 127.12 27.81"/>
      <polygon class="cls-1" points="81.77 66.73 81.77 79.53 58.05 79.53 58.05 89.07 81.77 89.07 81.77 114.67 91.37 114.67 91.37 89.07 115.09 89.07 115.09 79.53 91.37 79.53 91.37 53.93 81.77 53.93 81.77 66.73"/>
      <polygon class="cls-1" points="151.51 73.19 151.51 81.23 137.07 81.23 137.07 87.72 151.51 87.72 151.51 103.76 158.71 103.76 158.71 87.72 173.14 87.72 173.14 81.23 158.71 81.23 158.71 65.19 151.51 65.19 151.51 73.19"/>
      <polygon class="cls-1" points="14.08 73.9 14.08 81.58 0 81.58 0 87.02 14.08 87.02 14.08 102.38 19.59 102.38 19.59 87.02 34.02 86.51 34.02 81.58 19.59 81.58 19.59 66.22 14.08 66.22 14.08 73.9"/>
      <polygon class="cls-1" points="37.8 110.06 37.8 121.49 16.48 121.49 16.48 129.01 37.8 129.01 37.8 151.86 46.02 151.86 46.02 129.01 67.34 129.01 67.34 121.49 46.02 121.49 46.02 98.64 37.8 98.64 37.8 110.06"/>
      <polygon class="cls-1" points="127.12 110.06 127.12 121.49 105.8 121.49 105.8 128.66 127.12 128.66 127.12 151.86 135.34 151.86 135.34 128.66 156.66 128.66 156.66 121.49 135.34 121.49 135.34 98.64 127.12 98.64 127.12 110.06"/>
      <polygon class="cls-1" points="83.15 139.09 83.15 147.09 68.71 147.09 68.71 153.59 83.15 153.59 83.15 169.62 90.35 169.62 90.35 153.59 104.78 153.59 104.78 147.09 90.35 147.09 90.35 131.06 83.15 131.06 83.15 139.09"/>
    </g>
  </g>
</svg>